<svg style="object-fit:cover" id="my-svg" version="1" baseProfile="full" width="100%" height="100%" viewBox="0 0 1536 722" xmlns="http://www.w3.org/2000/svg"><rect width="1536" height="722" fill="#000"/><defs><radialGradient id="radial-gradient" cx="0.5" cy="0.75" r="0.25"><stop offset="0%" stop-color="#c81d1190"/><stop offset="100%" stop-color="#002fff90"/></radialGradient></defs><path transform="scale(1, 1)" d="M 0,722 V 0,422 C 68.67435897435897,484.4076923076923 137.34871794871793,546.8153846153846 218,556 C 298.65128205128207,565.1846153846154 391.2794871794872,521.146153846154 492,457 C 592.7205128205128,392.85384615384606 701.5333333333332,308.59999999999997 796,284 C 890.4666666666668,259.40000000000003 970.5871794871796,294.45384615384614 1056,307 C 1141.4128205128204,319.54615384615386 1232.1179487179486,309.5846153846154 1313,325 C 1393.8820512820514,340.4153846153846 1464.9410256410256,381.2076923076923 1536,422 C 1536,422 1536,722 1536,722 Z" stroke="none" stroke-width="0" fill="url(#radial-gradient)" class="transition-all duration-300 ease-in-out delay-150" style="transform-origin: center center;"/><defs><radialGradient id="radial-gradient" cx="0.5" cy="0.75" r="0.25"><stop offset="0%" stop-color="#c81d11ff"/><stop offset="100%" stop-color="#002fffff"/></radialGradient></defs><path transform="scale(1, 1)" d="M 0,722 V 0,633 C 78.82051282051285,550.9461538461538 157.6410256410257,468.8923076923077 244,488 C 330.3589743589743,507.1076923076923 424.25641025641016,627.376923076923 520,658 C 615.7435897435898,688.623076923077 713.3333333333335,629.6 789,651 C 864.6666666666665,672.4 918.4102564102564,774.223076923077 1002,760 C 1085.5897435897436,745.776923076923 1199.0256410256409,615.5076923076923 1293,575 C 1386.9743589743591,534.4923076923077 1461.4871794871797,583.7461538461539 1536,633 C 1536,633 1536,722 1536,722 Z" stroke="none" stroke-width="0" fill="url(#radial-gradient)" class="transition-all duration-300 ease-in-out delay-150" style="transform-origin: center center;"/></svg>